<?xml version="1.0" encoding="UTF-8" standalone="no"?><!DOCTYPE svg PUBLIC "-//W3C//DTD SVG 1.1//EN" "http://www.w3.org/Graphics/SVG/1.1/DTD/svg11.dtd"><svg width="100%" height="100%" viewBox="0 0 30 29" version="1.1" xmlns="http://www.w3.org/2000/svg" xmlns:xlink="http://www.w3.org/1999/xlink" xml:space="preserve" xmlns:serif="http://www.serif.com/" style="fill-rule:evenodd;clip-rule:evenodd;stroke-linejoin:round;stroke-miterlimit:1.41421;"><path d="M14.832,9.224l8.23,-8.269c0.654,-0.624 1.491,-0.965 2.421,-0.955c2.568,0.16 4.112,3.503 2.186,5.541l-8.23,8.268l9.27,9.228c2.207,2.312 -0.988,8.006 -4.585,4.606l-9.271,-9.227l-9.225,9.268c-2.347,2.24 -7.91,-1.091 -4.607,-4.585l9.225,-9.268l-8.266,-8.228c-1.793,-1.879 -0.573,-5.509 2.327,-5.553c0.056,0.002 0.112,0.004 0.168,0.006c0.787,0.069 1.511,0.392 2.091,0.94l8.266,8.228Z" style="fill:#fff;fill-rule:nonzero;"/></svg>