<?xml version="1.0" encoding="UTF-8" standalone="no"?><!DOCTYPE svg PUBLIC "-//W3C//DTD SVG 1.1//EN" "http://www.w3.org/Graphics/SVG/1.1/DTD/svg11.dtd"><svg width="100%" height="100%" viewBox="0 0 157 114" version="1.1" xmlns="http://www.w3.org/2000/svg" xmlns:xlink="http://www.w3.org/1999/xlink" xml:space="preserve" xmlns:serif="http://www.serif.com/" style="fill-rule:evenodd;clip-rule:evenodd;stroke-linejoin:round;stroke-miterlimit:1.41421;"><g><g id="Layer1"><path d="M0.132,0l-0.005,75.632l75.152,0l-0.055,-75.52l-75.092,-0.112Z" style="fill:#fff;"/></g><g id="Layer6"><path d="M132.481,74.746c-4.635,1.953 -9.727,3.032 -15.069,3.032c-21.464,0 -38.89,-17.425 -38.89,-38.889c0,-21.463 17.426,-38.889 38.89,-38.889c21.463,0 38.889,17.426 38.889,38.889c0,8.475 -2.717,16.32 -7.326,22.711l7.326,8.918l-16.295,13.387l-7.525,-9.159Z" style="fill:#fff;"/></g><g id="Layer7"><g><path d="M16.115,103.833l-2.942,-8.392l-2.942,8.392l5.884,0Zm1.738,4.981l-9.361,0l-1.504,4.38l-6.988,0l9.595,-25.209l7.155,0l9.595,25.209l-6.987,0l-1.505,-4.38Z" style="fill:#fff;fill-rule:nonzero;"/><path d="M35.774,99.252l1.237,0c1.292,0 2.284,-0.267 2.975,-0.802c0.691,-0.535 1.037,-1.304 1.037,-2.307c0,-1.003 -0.346,-1.772 -1.037,-2.307c-0.691,-0.535 -1.683,-0.802 -2.975,-0.802l-1.237,0l0,6.218Zm14.409,13.942l-8.157,0l-6.252,-9.696l0,9.696l-6.553,0l0,-25.209l10.197,0c1.404,0 2.63,0.206 3.677,0.619c1.048,0.412 1.912,0.975 2.592,1.688c0.679,0.713 1.192,1.538 1.538,2.474c0.345,0.936 0.518,1.939 0.518,3.009c0,1.917 -0.463,3.472 -1.388,4.664c-0.925,1.192 -2.29,2 -4.095,2.424l7.923,10.331Z" style="fill:#fff;fill-rule:nonzero;"/><path d="M70.611,96.41c-1.516,-1.85 -3.388,-2.775 -5.617,-2.775c-0.98,0 -1.889,0.179 -2.725,0.535c-0.835,0.357 -1.554,0.842 -2.156,1.455c-0.602,0.613 -1.075,1.343 -1.421,2.19c-0.345,0.846 -0.518,1.76 -0.518,2.741c0,1.003 0.173,1.928 0.518,2.775c0.346,0.847 0.825,1.583 1.438,2.207c0.613,0.624 1.332,1.114 2.156,1.471c0.825,0.356 1.716,0.535 2.675,0.535c2.095,0 3.978,-0.892 5.65,-2.675l0,7.756l-0.669,0.234c-1.003,0.357 -1.939,0.619 -2.808,0.786c-0.869,0.167 -1.727,0.251 -2.574,0.251c-1.739,0 -3.405,-0.329 -4.999,-0.986c-1.593,-0.658 -2.997,-1.583 -4.212,-2.775c-1.215,-1.193 -2.19,-2.608 -2.926,-4.246c-0.735,-1.639 -1.103,-3.427 -1.103,-5.366c0,-1.94 0.362,-3.717 1.087,-5.333c0.724,-1.616 1.694,-3.009 2.908,-4.179c1.215,-1.17 2.625,-2.084 4.23,-2.742c1.604,-0.657 3.287,-0.986 5.048,-0.986c1.003,0 1.989,0.106 2.959,0.318c0.97,0.211 1.989,0.54 3.059,0.986l0,7.823Z" style="fill:#fff;fill-rule:nonzero;"/><path d="M82.38,97.714l9.461,0l0,-9.729l6.553,0l0,25.209l-6.553,0l0,-10.398l-9.461,0l0,10.398l-6.553,0l0,-25.209l6.553,0l0,9.729Z" style="fill:#fff;fill-rule:nonzero;"/><rect x="103.677" y="87.985" width="6.553" height="25.209" style="fill:#fff;fill-rule:nonzero;"/><path d="M119.992,87.985l6.085,15.346l6.118,-15.346l7.121,0l-10.631,25.209l-5.216,0l-10.598,-25.209l7.121,0Z" style="fill:#fff;fill-rule:nonzero;"/><path d="M156.301,93.535l-7.79,0l0,4.213l7.355,0l0,5.55l-7.355,0l0,4.346l7.79,0l0,5.55l-14.343,0l0,-25.209l14.343,0l0,5.55Z" style="fill:#fff;fill-rule:nonzero;"/></g></g><g id="Layer4"><circle cx="117.412" cy="38.066" r="17.758" style="fill:#fed52d;"/></g><g id="Layer8"><rect x="21.427" y="0.032" width="32.552" height="26.709" style="fill:#7174dd;"/></g><g id="Layer81" serif:id="Layer8"><rect x="21.427" y="48.891" width="32.552" height="26.741" style="fill:#e6296d;"/></g></g></svg>